<svg xmlns="http://www.w3.org/2000/svg" width="19" height="9" viewBox="0 0 19 9">
    <defs>
        <filter id="3rgq888v6a">
            <feColorMatrix in="SourceGraphic" values="0 0 0 0 0.164706 0 0 0 0 0.207843 0 0 0 0 0.674510 0 0 0 1.000000 0"/>
        </filter>
        <filter id="kb2fojk31b">
            <feColorMatrix in="SourceGraphic" values="0 0 0 0 0.164706 0 0 0 0 0.207843 0 0 0 0 0.674510 0 0 0 1.000000 0"/>
        </filter>
        <filter id="rujrbaxtac">
            <feColorMatrix in="SourceGraphic" values="0 0 0 0 0.164706 0 0 0 0 0.207843 0 0 0 0 0.674510 0 0 0 1.000000 0"/>
        </filter>
    </defs>
    <g fill="none" fill-rule="evenodd">
        <g>
            <g filter="url(#3rgq888v6a)" transform="translate(-242 -6797) translate(162 6792)">
                <g filter="url(#kb2fojk31b)">
                    <g filter="url(#rujrbaxtac)">
                        <g>
                            <path fill="#000" fill-rule="nonzero" d="M18.368 3.986L14.574.21c-.284-.282-.744-.281-1.027.003-.283.284-.282.743.003 1.026l2.546 2.534H.726C.325 3.774 0 4.1 0 4.5c0 .4.325.726.726.726h15.37L13.552 7.76c-.284.283-.286.742-.003 1.026.283.284.743.285 1.027.003l3.792-3.775c.285-.284.284-.745 0-1.028z" transform="translate(80 5)"/>
                        </g>
                    </g>
                </g>
            </g>
        </g>
    </g>
</svg>
