<svg xmlns="http://www.w3.org/2000/svg" xmlns:xlink="http://www.w3.org/1999/xlink" width="61" height="74" viewBox="0 0 61 74">
    <defs>
        <filter id="sfdiqhvq9a">
            <feColorMatrix in="SourceGraphic" values="0 0 0 0 0.254902 0 0 0 0 0.411765 0 0 0 0 0.882353 0 0 0 1.000000 0"/>
        </filter>
        <path id="hvhn26hpjb" d="M0.5 0.5L60.5 0.5 60.5 73.5 0.5 73.5z"/>
    </defs>
    <g fill="none" fill-rule="evenodd">
        <g filter="url(#sfdiqhvq9a)" transform="translate(-678 -5526)">
            <g transform="translate(678 5526)">
                <mask id="moqxoha7dc" fill="#fff">
                    <use xlink:href="#hvhn26hpjb"/>
                </mask>
                <path fill="#000" d="M33.226 55.393c-.72 1.26-1.409 2.37-2.004 3.527-1.704 3.31-.19 7.357 3.261 8.807 3.396 1.427 7.352-.342 8.54-3.835.632-1.858.436-3.65-.533-5.355-.582-1.023-1.178-2.037-1.835-3.172h15.558v-8.818c-6.85 1.305-12.712-4.034-12.824-10.273-.055-2.994.95-5.604 3.06-7.733 2.688-2.712 5.982-3.65 9.749-3.07v-8.877H40.712c.145-.275.246-.48.36-.68.519-.907 1.069-1.797 1.559-2.719 1.323-2.489.866-5.517-1.105-7.505-1.997-2.014-5.05-2.486-7.574-1.172-2.47 1.286-3.843 4.05-3.289 6.824.164.819.538 1.614.917 2.369.482.964 1.066 1.876 1.676 2.93H17.614v15.618c-1.229-.698-2.342-1.385-3.503-1.978-3.322-1.695-7.396-.177-8.829 3.257-1.42 3.405.343 7.324 3.85 8.518 1.863.634 3.66.426 5.37-.537 1.025-.578 2.041-1.174 3.181-1.83v15.704h15.543zm2.44 17.107c-.93-.268-1.893-.454-2.782-.82-4.572-1.881-7.177-6.44-6.54-11.344.024-.188.03-.378.051-.63H13.39V46.51c-3.95.607-7.31-.394-10.014-3.251C1.313 41.079.375 38.44.513 35.452c.295-6.336 6.271-11.27 12.82-9.994V12.351h13.076c-.592-3.882.368-7.204 3.164-9.892C31.735.38 34.364-.586 37.364-.494c6.254.19 11.455 6.062 10.157 12.796H60.49v19.96c-.367-.21-.7-.407-1.038-.591-1.394-.753-2.673-1.728-4.304-2.005-3.344-.568-6.702 1.724-7.336 5.057-.667 3.509 1.565 6.88 4.988 7.554 1.64.324 3.17.05 4.61-.769 1.008-.572 2.009-1.155 3.091-1.779v19.927H47.564c0 1.24.127 2.429-.023 3.584-.608 4.717-4.22 8.366-8.912 9.126-.134.022-.26.088-.39.134h-2.573z" mask="url(#moqxoha7dc)"/>
            </g>
        </g>
    </g>
</svg>
