<?xml version="1.0" encoding="utf-8"?>
<!-- Generator: Adobe Illustrator 24.1.0, SVG Export Plug-In . SVG Version: 6.00 Build 0)  -->
<svg version="1.1" id="Layer_1" xmlns="http://www.w3.org/2000/svg" xmlns:xlink="http://www.w3.org/1999/xlink" x="0px" y="0px"
	 viewBox="0 0 1531.4 249.8" style="enable-background:new 0 0 1531.4 249.8;" xml:space="preserve">
<style type="text/css">
	.st0{fill:#74D1FF;}
	.st1{fill:#0042FF;}
	.st2{fill:#0036BE;}
</style>
<g>
</g>
<g>
	<g>
		<path d="M327.1,83.4v29.1h47.1V138h-47.1v30.9h53v27h-86.6V56.6h86.6v26.8H327.1z"/>
		<path d="M498.9,97.4c7.4,8.4,11.1,20,11.1,34.7v63.8h-33.7V136c0-7.3-1.9-13.1-5.8-17.2c-3.9-4.1-9-6.2-15.5-6.2
			c-6.8,0-12.2,2.2-16.2,6.5c-4,4.3-6,10.5-6,18.5v58.3h-33.7V86h33.7v20.1c3.2-6.6,7.8-11.7,14.1-15.6c6.2-3.8,13.6-5.7,22-5.7
			C481.5,84.8,491.5,89,498.9,97.4z"/>
		<path d="M595.7,90.3c6,3.8,10.5,9,13.4,15.6V86h33.5v109.3c0,10.2-2,19.5-5.9,27.7c-3.9,8.2-10,14.7-18.1,19.6
			c-8.1,4.9-18.2,7.3-30.3,7.3c-16.5,0-29.8-3.9-39.7-11.7c-9.9-7.8-15.8-18.4-17.8-31.8H564c1,4.5,3.4,7.9,7.2,10.4
			c3.7,2.5,8.6,3.7,14.7,3.7c7,0,12.6-2,16.8-6c4.3-4,6.4-10.4,6.4-19.2V176c-2.9,6.6-7.4,11.7-13.4,15.6c-6,3.8-13.3,5.7-21.7,5.7
			c-9.1,0-17.2-2.3-24.3-6.8c-7.2-4.5-12.8-11.1-16.9-19.6c-4.1-8.5-6.2-18.5-6.2-29.9c0-11.5,2.1-21.6,6.2-30
			c4.1-8.5,9.8-15,16.9-19.5c7.2-4.5,15.3-6.8,24.3-6.8C582.4,84.6,589.6,86.5,595.7,90.3z M567.4,121.2c-4.4,4.7-6.6,11.3-6.6,19.7
			c0,8.4,2.2,15,6.6,19.7c4.4,4.7,10.2,7.1,17.4,7.1c7.1,0,12.9-2.4,17.4-7.3c4.5-4.9,6.8-11.4,6.8-19.5c0-8.3-2.3-14.8-6.8-19.6
			c-4.5-4.8-10.3-7.2-17.4-7.2C577.6,114.1,571.8,116.5,567.4,121.2z"/>
		<path d="M729.1,90.3c6,3.8,10.5,9,13.4,15.6V86H776v109.9h-33.5V176c-2.9,6.6-7.4,11.7-13.4,15.6c-6,3.8-13.3,5.7-21.7,5.7
			c-9.1,0-17.2-2.3-24.3-6.8c-7.2-4.5-12.8-11.1-16.9-19.6c-4.1-8.5-6.2-18.5-6.2-29.9c0-11.5,2.1-21.6,6.2-30
			c4.1-8.5,9.8-15,16.9-19.5c7.2-4.5,15.3-6.8,24.3-6.8C715.9,84.6,723.1,86.5,729.1,90.3z M700.9,121.2c-4.4,4.7-6.6,11.3-6.6,19.7
			c0,8.4,2.2,15,6.6,19.7c4.4,4.7,10.2,7.1,17.4,7.1c7.1,0,12.9-2.4,17.4-7.3c4.5-4.9,6.8-11.4,6.8-19.5c0-8.3-2.3-14.8-6.8-19.6
			c-4.5-4.8-10.3-7.2-17.4-7.2C711.1,114.1,705.3,116.5,700.9,121.2z"/>
		<path d="M862.6,90.3c6,3.8,10.5,9,13.4,15.6V86h33.5v109.3c0,10.2-2,19.5-5.9,27.7c-3.9,8.2-10,14.7-18.1,19.6
			c-8.1,4.9-18.2,7.3-30.3,7.3c-16.5,0-29.8-3.9-39.7-11.7c-9.9-7.8-15.8-18.4-17.8-31.8h33.3c1,4.5,3.4,7.9,7.2,10.4
			c3.7,2.5,8.6,3.7,14.7,3.7c7,0,12.6-2,16.8-6c4.3-4,6.4-10.4,6.4-19.2V176c-2.9,6.6-7.4,11.7-13.4,15.6c-6,3.8-13.3,5.7-21.7,5.7
			c-9.1,0-17.2-2.3-24.3-6.8c-7.2-4.5-12.8-11.1-16.9-19.6c-4.1-8.5-6.2-18.5-6.2-29.9c0-11.5,2.1-21.6,6.2-30
			c4.1-8.5,9.8-15,16.9-19.5c7.2-4.5,15.3-6.8,24.3-6.8C849.4,84.6,856.6,86.5,862.6,90.3z M834.4,121.2c-4.4,4.7-6.6,11.3-6.6,19.7
			c0,8.4,2.2,15,6.6,19.7c4.4,4.7,10.2,7.1,17.4,7.1c7.1,0,12.9-2.4,17.4-7.3c4.5-4.9,6.8-11.4,6.8-19.5c0-8.3-2.3-14.8-6.8-19.6
			c-4.5-4.8-10.3-7.2-17.4-7.2C844.6,114.1,838.8,116.5,834.4,121.2z"/>
		<path d="M1036.1,147h-76.2c0.4,8.3,2.5,14.2,6.3,17.8c3.8,3.6,8.7,5.4,14.6,5.4c5,0,9.1-1.2,12.4-3.7c3.3-2.5,5.4-5.7,6.5-9.6
			h35.6c-1.4,7.7-4.6,14.7-9.5,20.8c-4.9,6.1-11,10.9-18.5,14.4c-7.5,3.5-15.8,5.2-25,5.2c-10.8,0-20.3-2.3-28.6-6.8
			c-8.3-4.5-14.9-11.1-19.6-19.6c-4.7-8.5-7.1-18.5-7.1-29.9c0-11.5,2.3-21.6,7-30c4.7-8.5,11.2-15,19.6-19.5
			c8.4-4.5,18-6.8,28.7-6.8c10.9,0,20.5,2.2,28.7,6.7c8.3,4.5,14.7,10.7,19.2,18.8c4.5,8.1,6.8,17.4,6.8,27.9
			C1037.1,140.7,1036.7,143.7,1036.1,147z M997.2,116.6c-4-3.6-9-5.4-14.9-5.4c-6.2,0-11.3,1.8-15.4,5.5c-4.1,3.7-6.4,9.1-6.9,16.1
			h42.9C1003.1,125.6,1001.2,120.2,997.2,116.6z"/>
		<path d="M1138.6,163.7h-61l-11.6,32.1h-19.3l51.4-136.2h20.3l51.2,136.2h-19.3L1138.6,163.7z M1133.5,149.8l-25.4-70.1l-25.4,70.1
			H1133.5z"/>
		<path d="M1251,95.9c7.4,6.4,11.9,14.9,13.5,25.7h-17.1c-0.8-6.4-3.4-11.7-8-15.8c-4.5-4.1-10.6-6.2-18.2-6.2
			c-6.4,0-11.5,1.5-15.1,4.6c-3.6,3.1-5.4,7.3-5.4,12.5c0,3.9,1.2,7.1,3.6,9.5c2.4,2.4,5.4,4.3,9.1,5.5c3.6,1.2,8.6,2.6,14.9,4
			c8,1.8,14.5,3.7,19.4,5.6c4.9,1.9,9.1,5,12.6,9.2c3.5,4.2,5.2,9.8,5.2,16.9c0,8.8-3.3,15.9-9.9,21.5c-6.6,5.5-15.5,8.3-26.5,8.3
			c-12.9,0-23.4-3.1-31.5-9.3c-8.1-6.2-12.9-14.8-14.4-25.8h17.3c0.7,6.6,3.5,11.9,8.6,15.9c5.1,4.1,11.7,6.1,20,6.1
			c6.2,0,11-1.6,14.5-4.7c3.5-3.2,5.2-7.3,5.2-12.4c0-4.2-1.2-7.5-3.7-10c-2.5-2.5-5.6-4.4-9.3-5.7c-3.7-1.3-8.7-2.7-15.2-4.1
			c-8-1.8-14.4-3.7-19.2-5.5c-4.8-1.8-8.9-4.8-12.2-8.8c-3.3-4-5-9.4-5-16.2c0-9.1,3.3-16.4,10-22c6.7-5.6,15.8-8.4,27.4-8.4
			C1233.7,86.4,1243.5,89.6,1251,95.9z"/>
		<path d="M1360.4,94.2c7.3,5.3,12.4,12.3,15.3,21.1V87.7h17.9v108.1h-17.9v-27.6c-2.9,8.8-8,15.8-15.3,21.1
			c-7.3,5.3-16.2,7.9-26.7,7.9c-9.6,0-18.1-2.2-25.6-6.7c-7.5-4.5-13.4-10.9-17.6-19.2c-4.3-8.3-6.4-18.1-6.4-29.4
			c0-11.3,2.1-21.1,6.4-29.5c4.3-8.4,10.1-14.8,17.6-19.3c7.5-4.5,16-6.7,25.6-6.7C1344.2,86.4,1353.1,89,1360.4,94.2z
			 M1312.4,112.9c-6.6,7-9.9,16.7-9.9,29c0,12.3,3.3,22,9.9,29c6.6,7,15.5,10.5,26.5,10.5c7.1,0,13.4-1.6,19-4.9
			c5.6-3.3,9.9-7.9,13.1-13.9c3.1-6,4.7-12.9,4.7-20.8c0-7.9-1.6-14.8-4.7-20.9c-3.1-6-7.5-10.7-13.1-13.9c-5.6-3.2-11.9-4.8-19-4.8
			C1327.8,102.3,1319,105.8,1312.4,112.9z"/>
		<path d="M1507.4,93.1c7.5,4.5,13.4,10.9,17.6,19.3c4.3,8.4,6.4,18.2,6.4,29.5c0,11.3-2.1,21.1-6.4,29.4
			c-4.3,8.3-10.1,14.7-17.6,19.2c-7.5,4.5-16,6.7-25.6,6.7c-10.5,0-19.4-2.7-26.7-8c-7.3-5.3-12.3-12.3-15.1-21V247h-17.9V87.7h17.9
			v27.6c2.8-8.7,7.8-15.7,15.1-21c7.3-5.3,16.2-8,26.7-8C1491.4,86.4,1499.9,88.6,1507.4,93.1z M1457.8,107.1
			c-5.6,3.2-10,7.8-13.2,13.9c-3.1,6-4.7,13-4.7,20.9c0,7.9,1.6,14.8,4.7,20.8c3.2,6,7.5,10.6,13.2,13.9c5.6,3.3,11.9,4.9,18.9,4.9
			c11.2,0,20-3.5,26.7-10.5c6.6-7,9.9-16.7,9.9-29c0-12.3-3.3-22-9.9-29c-6.6-7-15.5-10.5-26.7-10.5
			C1469.7,102.3,1463.4,103.9,1457.8,107.1z"/>
	</g>
	<g>
		<g>
			<path class="st0" d="M197.2,1.3l-170.9,47c-26.5,7.3-35.2,40.4-15.8,59.9L134.4,232c19.4,19.4,52.6,10.7,59.9-15.8l47-170.9
				C248.6,18.6,224-6,197.2,1.3z"/>
		</g>
		<g>
			<path class="st1" d="M180.3,18.4L36.7,56.9C10.1,64,1.2,97.3,20.7,116.8l105.1,105.1c19.5,19.5,52.8,10.6,59.9-16.1l38.5-143.6
				C231.3,35.6,206.9,11.2,180.3,18.4z"/>
		</g>
		<g>
			<path class="st0" d="M190.5,36.6L39.6,137.2l64.1,64.1L204.3,50.4C210.4,41.3,199.5,30.5,190.5,36.6z"/>
		</g>
		<g>
			<path class="st0" d="M25.9,209.4l11.3-67.2c-0.4-5.7,6.5-8.9,10.5-4.8l55.9,55.9c4,4,0.9,11-4.8,10.5l-67.2,11.3
				C28.6,214.9,26.2,212.5,25.9,209.4z"/>
		</g>
		<g>
			<path class="st2" d="M71.3,168.9l32.3,32.3l101.7-151c3.6-5.3,2.3-10.9-1.2-14.1L71.3,168.9z"/>
		</g>
		<g>
			<path class="st2" d="M27.1,213c1,1.3,2.6,2.2,4.3,2.3L98.7,204c5.7,0.4,8.9-6.5,4.8-10.5L75.1,165L27.1,213z"/>
		</g>
	</g>
</g>
</svg>
